<svg width="713" height="146" viewBox="0 0 713 146" fill="none" xmlns="http://www.w3.org/2000/svg">
<path d="M180.204 107V39.8H204.684C208.236 39.8 211.436 40.536 214.284 42.008C217.164 43.448 219.436 45.528 221.1 48.248C222.796 50.936 223.644 54.12 223.644 57.8C223.644 59.432 223.404 61.08 222.924 62.744C222.444 64.408 221.708 65.912 220.716 67.256C219.724 68.568 218.444 69.544 216.876 70.184C218.956 70.696 220.652 71.624 221.964 72.968C223.276 74.312 224.3 75.896 225.036 77.72C225.772 79.512 226.268 81.352 226.524 83.24C226.812 85.096 226.956 86.824 226.956 88.424C226.956 91.976 226.076 95.144 224.316 97.928C222.556 100.712 220.188 102.92 217.212 104.552C214.268 106.184 211.004 107 207.42 107H180.204ZM191.916 96.968H206.22C208.14 96.968 209.868 96.504 211.404 95.576C212.94 94.648 214.172 93.368 215.1 91.736C216.028 90.104 216.492 88.248 216.492 86.168C216.492 84.376 216.028 82.68 215.1 81.08C214.172 79.48 212.94 78.184 211.404 77.192C209.868 76.2 208.14 75.704 206.22 75.704H191.916V96.968ZM191.916 65.816H203.34C205.708 65.816 207.724 65.08 209.388 63.608C211.084 62.136 211.932 60.184 211.932 57.752C211.932 55.16 211.084 53.208 209.388 51.896C207.724 50.552 205.708 49.88 203.34 49.88H191.916V65.816ZM236.548 59H248.26V107H236.548V59ZM242.5 52.808C240.772 52.808 239.316 52.248 238.132 51.128C236.948 49.976 236.356 48.536 236.356 46.808C236.356 45.112 236.948 43.688 238.132 42.536C239.316 41.384 240.756 40.808 242.452 40.808C244.148 40.808 245.572 41.384 246.724 42.536C247.908 43.688 248.5 45.112 248.5 46.808C248.5 48.536 247.924 49.976 246.772 51.128C245.62 52.248 244.196 52.808 242.5 52.808ZM279.793 108.248C275.377 108.248 271.345 107.112 267.697 104.84C264.081 102.568 261.185 99.528 259.009 95.72C256.865 91.88 255.793 87.64 255.793 83C255.793 79.48 256.417 76.2 257.665 73.16C258.913 70.088 260.625 67.4 262.801 65.096C265.009 62.76 267.569 60.936 270.481 59.624C273.393 58.312 276.497 57.656 279.793 57.656C284.209 57.656 288.225 58.792 291.841 61.064C295.489 63.336 298.385 66.392 300.529 70.232C302.705 74.072 303.793 78.328 303.793 83C303.793 86.488 303.169 89.752 301.921 92.792C300.673 95.832 298.945 98.52 296.737 100.856C294.561 103.16 292.017 104.968 289.105 106.28C286.225 107.592 283.121 108.248 279.793 108.248ZM279.793 96.536C282.129 96.536 284.225 95.912 286.081 94.664C287.937 93.416 289.393 91.768 290.449 89.72C291.537 87.672 292.081 85.432 292.081 83C292.081 80.504 291.521 78.232 290.401 76.184C289.313 74.104 287.825 72.456 285.937 71.24C284.081 69.992 282.033 69.368 279.793 69.368C277.489 69.368 275.409 69.992 273.553 71.24C271.697 72.488 270.225 74.152 269.137 76.232C268.049 78.312 267.505 80.568 267.505 83C267.505 85.528 268.065 87.816 269.185 89.864C270.305 91.912 271.793 93.544 273.649 94.76C275.537 95.944 277.585 96.536 279.793 96.536Z" fill="#00BE6D"/>
<path d="M336.584 108.248C332.872 108.248 329.304 107.672 325.88 106.52C322.488 105.336 319.512 103.656 316.952 101.48C314.392 99.272 312.552 96.632 311.432 93.56L322.424 89.528C322.872 90.808 323.784 91.976 325.16 93.032C326.536 94.088 328.216 94.936 330.2 95.576C332.184 96.216 334.312 96.536 336.584 96.536C338.92 96.536 341.096 96.184 343.112 95.48C345.16 94.744 346.808 93.736 348.056 92.456C349.304 91.144 349.928 89.624 349.928 87.896C349.928 86.136 349.272 84.696 347.96 83.576C346.648 82.424 344.968 81.512 342.92 80.84C340.872 80.168 338.76 79.656 336.584 79.304C331.816 78.568 327.544 77.432 323.768 75.896C319.992 74.36 317 72.232 314.792 69.512C312.616 66.792 311.528 63.272 311.528 58.952C311.528 54.888 312.696 51.336 315.032 48.296C317.368 45.256 320.44 42.888 324.248 41.192C328.056 39.496 332.168 38.648 336.584 38.648C340.264 38.648 343.816 39.224 347.24 40.376C350.664 41.528 353.656 43.208 356.216 45.416C358.808 47.624 360.664 50.28 361.784 53.384L350.744 57.368C350.296 56.088 349.384 54.92 348.008 53.864C346.632 52.808 344.952 51.976 342.968 51.368C340.984 50.728 338.856 50.408 336.584 50.408C334.312 50.376 332.152 50.744 330.104 51.512C328.088 52.248 326.44 53.256 325.16 54.536C323.88 55.816 323.24 57.288 323.24 58.952C323.24 61.096 323.832 62.712 325.016 63.8C326.232 64.888 327.848 65.688 329.864 66.2C331.88 66.68 334.12 67.128 336.584 67.544C341.064 68.248 345.208 69.432 349.016 71.096C352.824 72.76 355.88 74.984 358.184 77.768C360.488 80.52 361.64 83.896 361.64 87.896C361.64 91.96 360.488 95.528 358.184 98.6C355.88 101.64 352.824 104.008 349.016 105.704C345.208 107.4 341.064 108.248 336.584 108.248ZM391.918 108.248C387.502 108.248 383.47 107.112 379.822 104.84C376.206 102.568 373.31 99.528 371.134 95.72C368.99 91.88 367.918 87.64 367.918 83C367.918 79.48 368.542 76.2 369.79 73.16C371.038 70.088 372.75 67.4 374.926 65.096C377.134 62.76 379.694 60.936 382.606 59.624C385.518 58.312 388.622 57.656 391.918 57.656C396.334 57.656 400.35 58.792 403.966 61.064C407.614 63.336 410.51 66.392 412.654 70.232C414.83 74.072 415.918 78.328 415.918 83C415.918 86.488 415.294 89.752 414.046 92.792C412.798 95.832 411.07 98.52 408.862 100.856C406.686 103.16 404.142 104.968 401.23 106.28C398.35 107.592 395.246 108.248 391.918 108.248ZM391.918 96.536C394.254 96.536 396.35 95.912 398.206 94.664C400.062 93.416 401.518 91.768 402.574 89.72C403.662 87.672 404.206 85.432 404.206 83C404.206 80.504 403.646 78.232 402.526 76.184C401.438 74.104 399.95 72.456 398.062 71.24C396.206 69.992 394.158 69.368 391.918 69.368C389.614 69.368 387.534 69.992 385.678 71.24C383.822 72.488 382.35 74.152 381.262 76.232C380.174 78.312 379.63 80.568 379.63 83C379.63 85.528 380.19 87.816 381.31 89.864C382.43 91.912 383.918 93.544 385.774 94.76C387.662 95.944 389.71 96.536 391.918 96.536ZM438.101 48.92V59H451.205V70.712H438.101V107H426.389V70.712H421.157V59H426.389V48.92C426.389 46.168 427.061 43.656 428.405 41.384C429.781 39.08 431.621 37.256 433.925 35.912C436.229 34.536 438.773 33.848 441.557 33.848C443.573 33.848 445.573 34.264 447.557 35.096C449.541 35.928 451.301 37.208 452.837 38.936L444.389 47.192C444.101 46.648 443.685 46.248 443.141 45.992C442.629 45.704 442.101 45.56 441.557 45.56C440.629 45.56 439.813 45.896 439.109 46.568C438.437 47.208 438.101 47.992 438.101 48.92ZM486.432 70.712H477.12V107H465.408V70.712H458.304V59H465.408V43.928H477.12V59H486.432V70.712ZM519.879 107H508.263L492.231 59H503.703L514.119 90.056L524.487 59H536.055L546.423 90.056L556.839 59H568.311L552.279 107H540.663L530.247 75.8L519.879 107ZM609.771 59H621.483V107H609.771L609.243 101.048C607.931 103.192 606.187 104.936 604.011 106.28C601.867 107.592 599.323 108.248 596.379 108.248C592.827 108.248 589.499 107.576 586.395 106.232C583.291 104.888 580.555 103.032 578.187 100.664C575.851 98.296 574.011 95.56 572.667 92.456C571.355 89.352 570.699 86.024 570.699 82.472C570.699 79.048 571.323 75.832 572.571 72.824C573.851 69.816 575.627 67.176 577.899 64.904C580.171 62.632 582.795 60.856 585.771 59.576C588.747 58.296 591.947 57.656 595.371 57.656C598.539 57.656 601.371 58.36 603.867 59.768C606.395 61.176 608.539 62.968 610.299 65.144L609.771 59ZM596.091 96.968C598.587 96.968 600.795 96.344 602.715 95.096C604.635 93.848 606.139 92.168 607.227 90.056C608.315 87.912 608.859 85.56 608.859 83C608.859 80.408 608.315 78.056 607.227 75.944C606.139 73.8 604.619 72.104 602.667 70.856C600.747 69.608 598.555 68.984 596.091 68.984C593.627 68.984 591.371 69.624 589.323 70.904C587.307 72.152 585.691 73.832 584.475 75.944C583.291 78.056 582.699 80.408 582.699 83C582.699 85.592 583.307 87.944 584.523 90.056C585.739 92.168 587.355 93.848 589.371 95.096C591.419 96.344 593.659 96.968 596.091 96.968ZM631.096 107L631.048 59H642.76L642.808 63.272C644.44 61.544 646.392 60.184 648.664 59.192C650.936 58.168 653.384 57.656 656.008 57.656C657.768 57.656 659.528 57.912 661.288 58.424L656.68 70.232C655.464 69.752 654.248 69.512 653.032 69.512C651.144 69.512 649.416 69.976 647.848 70.904C646.312 71.8 645.08 73.032 644.152 74.6C643.256 76.136 642.808 77.848 642.808 79.736V107H631.096ZM685.543 108.248C681.127 108.248 677.095 107.112 673.447 104.84C669.831 102.568 666.935 99.512 664.759 95.672C662.615 91.832 661.543 87.592 661.543 82.952C661.543 79.464 662.167 76.2 663.415 73.16C664.663 70.088 666.375 67.4 668.551 65.096C670.759 62.76 673.319 60.936 676.231 59.624C679.143 58.312 682.247 57.656 685.543 57.656C689.287 57.656 692.711 58.456 695.815 60.056C698.951 61.624 701.607 63.784 703.783 66.536C705.959 69.288 707.543 72.424 708.535 75.944C709.527 79.464 709.751 83.144 709.207 86.984H674.119C674.567 88.776 675.303 90.392 676.327 91.832C677.351 93.24 678.647 94.376 680.215 95.24C681.783 96.072 683.559 96.504 685.543 96.536C687.591 96.568 689.447 96.088 691.111 95.096C692.807 94.072 694.215 92.696 695.335 90.968L707.287 93.752C705.335 98.008 702.423 101.496 698.551 104.216C694.679 106.904 690.343 108.248 685.543 108.248ZM673.735 78.2H697.351C696.999 76.28 696.247 74.552 695.095 73.016C693.975 71.448 692.583 70.2 690.919 69.272C689.255 68.344 687.463 67.88 685.543 67.88C683.623 67.88 681.847 68.344 680.215 69.272C678.583 70.168 677.191 71.4 676.039 72.968C674.919 74.504 674.151 76.248 673.735 78.2Z" fill="#172B4D"/>
<path fill-rule="evenodd" clip-rule="evenodd" d="M88.4045 41.0795C88.4045 28.475 98.2942 18.2373 110.504 18.2373H141.444L132.604 36.4883V82.1442C132.604 107.353 112.825 127.743 88.4045 127.743H67.1609L49.1494 143.741C47.4643 145.253 45.2543 146.08 43.0443 145.994C17.4083 144.91 5.52953 131.907 0.722786 124.235C-0.934713 121.583 0.391287 118.047 3.34716 117.277L43.0995 107.011C39.5635 104.273 35.9999 101.279 32.3534 97.6575C18.2646 83.6841 8.84453 64.8343 8.84453 44.6442C8.84453 32.8381 11.4413 21.6594 16.027 11.6499C17.6293 8.14227 22.5189 8.34189 24.0383 11.9065C35.0883 37.9141 59.564 56.2506 88.4045 58.0187V41.0795ZM106.084 41.0795C106.084 43.589 108.073 45.6423 110.504 45.6423C112.935 45.6423 114.924 43.589 114.924 41.0795C114.924 38.57 112.935 36.5168 110.504 36.5168C108.073 36.5168 106.084 38.57 106.084 41.0795Z" fill="#172B4D"/>
<path d="M79.5508 54.6455C84.4919 54.6318 82.5098 53.2875 76.2036 41.0795C69.8974 28.8716 66.5531 17.0396 64.6194 3.95025C64.0392 0.100445 59.3706 -1.41096 56.9396 1.58333C51.1108 8.68409 41.7133 20.412 39.6392 28.8716C37.5651 37.3311 74.6096 54.6591 79.5508 54.6455Z" fill="#00BE6D"/>
</svg>
